<svg preserveAspectRatio="none" overflow="visible" style="display: block;" width="43" height="44" viewBox="0 0 43 44" fill="none" xmlns="http://www.w3.org/2000/svg">
<g id="Frame">
<path id="Vector" d="M11.7153 19.6836H12.6763V20.6206H12.7703C12.9573 20.0056 13.6843 19.5726 14.5223 19.5726C14.6863 19.5726 14.8973 19.5836 15.0263 19.6016V20.6096C14.9443 20.5856 14.5803 20.5506 14.3813 20.5506C13.4203 20.5506 12.7233 21.1956 12.7233 22.0856V25.9996H11.7153V19.6836ZM39.8503 19.5726C41.1743 19.5726 42.0943 20.2286 42.2293 21.2656H41.2333C41.0983 20.7616 40.6063 20.4276 39.8443 20.4276C39.0943 20.4276 38.5083 20.8086 38.5083 21.3706C38.5083 21.8046 38.8603 22.0746 39.6043 22.2556L40.5773 22.4906C41.7663 22.7776 42.3403 23.2926 42.3403 24.2016C42.3403 25.3316 41.2453 26.1116 39.8093 26.1116C38.4033 26.1116 37.4363 25.4376 37.3253 24.3886H38.3623C38.5323 24.9216 39.0363 25.2616 39.8443 25.2616C40.6943 25.2616 41.3033 24.8576 41.3033 24.2776C41.3033 23.8436 40.9753 23.5506 40.3013 23.3866L39.2173 23.1226C38.0343 22.8356 37.4953 22.3266 37.4953 21.4126C37.4953 20.3636 38.5083 19.5726 39.8503 19.5726ZM33.1853 25.2036C32.0303 25.2036 31.3393 24.3186 31.3393 22.8416C31.3393 21.3706 32.0363 20.4806 33.1853 20.4806C34.3273 20.4806 35.0423 21.3946 35.0423 22.8416C35.0423 24.3006 34.3333 25.2036 33.1853 25.2036ZM35.0193 17.1756V20.6796H34.9313C34.5733 19.9886 33.8293 19.5726 32.9503 19.5726C31.3453 19.5726 30.2963 20.8616 30.2963 22.8416C30.2963 24.8286 31.3333 26.1116 32.9503 26.1116C33.8233 26.1116 34.5733 25.6956 34.9723 24.9926H35.0663V25.9996H36.0273V17.1756H35.0193ZM26.0183 25.2036C24.8233 25.2036 24.1493 24.3356 24.1493 22.8416C24.1493 21.3416 24.8233 20.4806 26.0183 20.4806C27.2143 20.4806 27.8873 21.3416 27.8873 22.8416C27.8873 24.3356 27.2143 25.2036 26.0183 25.2036ZM26.0183 19.5726C24.2193 19.5726 23.1063 20.8086 23.1063 22.8416C23.1063 24.8696 24.2193 26.1116 26.0183 26.1116C27.8173 26.1116 28.9303 24.8696 28.9303 22.8416C28.9303 20.8086 27.8173 19.5726 26.0183 19.5726ZM8.9473 25.9996H9.9553V19.6836H8.9473V25.9996ZM8.7483 17.7616C8.7483 17.3746 9.0653 17.0586 9.4513 17.0586C9.8383 17.0586 10.1543 17.3746 10.1543 17.7616C10.1543 18.1486 9.8383 18.4646 9.4513 18.4646C9.0653 18.4646 8.7483 18.1486 8.7483 17.7616ZM2.6113 22.6836L3.9353 18.9106H4.0283L5.3533 22.6836H2.6113ZM4.5033 17.5446H3.4603L0.3433 25.9996H1.4503L2.3003 23.5796H5.6633L6.5133 25.9996H7.6203L4.5033 17.5446ZM19.3713 22.0446H17.5073V18.4826H19.3713C20.5953 18.4826 21.2693 19.1216 21.2693 20.2816C21.2693 21.4006 20.5723 22.0446 19.3713 22.0446ZM19.6463 17.5446H16.4533V25.9996H17.5073V22.9826H19.6343C21.2223 22.9826 22.3533 21.8636 22.3533 20.2816C22.3533 18.6696 21.2463 17.5446 19.6463 17.5446Z" fill="black" fill-opacity="0.8"/>
</g>
</svg>
